<?xml version="1.0" encoding="utf-8"?>
<!-- Generator: Adobe Illustrator 19.1.0, SVG Export Plug-In . SVG Version: 6.00 Build 0)  -->
<svg version="1.0" xmlns="http://www.w3.org/2000/svg" xmlns:xlink="http://www.w3.org/1999/xlink" x="0px" y="0px"
	 viewBox="0 0 1700 1003" enable-background="new 0 0 1700 1003" xml:space="preserve">
<g id="background">
	<g>
		<defs>
			<rect id="SVGID_1_" x="-1.667" y="-1.476" width="1707.498" height="1006.312"/>
		</defs>
		<clipPath id="SVGID_2_">
			<use xlink:href="#SVGID_1_"  overflow="visible"/>
		</clipPath>
		<g clip-path="url(#SVGID_2_)">
			<rect x="-45.99" y="258.686" fill-rule="evenodd" clip-rule="evenodd" width="1799.537" height="472.846"/>
			<linearGradient id="SVGID_3_" gradientUnits="userSpaceOnUse" x1="908.4795" y1="352.3604" x2="805.2045" y2="1334.9564">
				<stop  offset="0" style="stop-color:#807979"/>
				<stop  offset="1" style="stop-color:#1B1B1B"/>
			</linearGradient>
			<path fill-rule="evenodd" clip-rule="evenodd" fill="url(#SVGID_3_)" d="M-45.99,666.702l276.279-66.058l383.155-39.82
				c370.433,41.841,879.003-1.997,1140.103,107.658v410.433H-45.99V666.702z"/>
			<path fill-rule="evenodd" clip-rule="evenodd" fill="#E3F6F4" d="M-45.99,25.65h1799.537v302.459L1636.17,540.217
				c-18.686,33.768-68.376,70.247-106.864,70.247H153.415c-40.366,0-57.952-36.241-73.404-73.674L-45.99,231.56V25.65z"/>
			<g>
				<defs>
					<path id="SVGID_4_" d="M-45.99,25.65h1799.537v302.459L1636.17,540.217c-18.686,33.768-68.376,70.247-106.864,70.247H153.415
						c-40.366,0-57.952-36.241-73.404-73.674L-45.99,231.56V25.65z"/>
				</defs>
				<clipPath id="SVGID_5_">
					<use xlink:href="#SVGID_4_"  overflow="visible"/>
				</clipPath>
				<g clip-path="url(#SVGID_5_)">
					<g>
						<g>
							<path fill-rule="evenodd" clip-rule="evenodd" fill="#C7EAFB" d="M1111.713,204.689h110.139
								c36.39,0,64.347,19.039,64.347,47.987c0,3.862-3.13,7.022-6.956,7.022H1057.8c-4.463,0-8.115-3.686-8.115-8.192
								C1049.685,231.677,1070.471,204.689,1111.713,204.689z"/>
							<ellipse fill-rule="evenodd" clip-rule="evenodd" fill="#C7EAFB" cx="1172.392" cy="207.03" rx="53.912" ry="36.283"/>
						</g>
						<ellipse fill-rule="evenodd" clip-rule="evenodd" fill="#FCF8C5" cx="1348.397" cy="12.947" rx="102.461" ry="102.837"/>
						<ellipse fill-rule="evenodd" clip-rule="evenodd" fill="#FFF212" cx="1348.397" cy="12.947" rx="77.441" ry="77.726"/>
						<rect x="1202.74" y="146.824" fill-rule="evenodd" clip-rule="evenodd" fill="#CDE1D8" width="54.271" height="242.609"/>
						<rect x="1272.811" y="126.264" fill-rule="evenodd" clip-rule="evenodd" fill="#CDE1D8" width="42.83" height="255.973"/>
						<rect x="1308.777" y="164.3" fill-rule="evenodd" clip-rule="evenodd" fill="#CDE1D8" width="50.658" height="223.077"/>
						<rect x="1376.303" y="143.226" fill-rule="evenodd" clip-rule="evenodd" fill="#CDE1D8" width="77.327" height="271.907"/>
						<rect x="1439.811" y="160.702" fill-rule="evenodd" clip-rule="evenodd" fill="#336699" width="77.327" height="234.899"/>
						<rect x="1507.237" y="207.99" fill-rule="evenodd" clip-rule="evenodd" fill="#CDE1D8" width="100.064" height="234.898"/>
						<rect x="393.573" y="97.48" fill-rule="evenodd" clip-rule="evenodd" fill="#CDE1D8" width="97.303" height="242.609"/>
						<rect x="507.264" y="147.852" fill-rule="evenodd" clip-rule="evenodd" fill="#CDE1D8" width="69.267" height="172.705"/>
						<rect x="343.385" y="76.92" fill-rule="evenodd" clip-rule="evenodd" fill="#CDE1D8" width="55.951" height="255.973"/>
						<rect x="269.639" y="109.816" fill-rule="evenodd" clip-rule="evenodd" fill="#CDE1D8" width="55.952" height="223.077"/>
						<rect x="280.012" y="88.963" fill-rule="evenodd" clip-rule="evenodd" fill="#CDE1D8" width="34.182" height="136.281"/>
						<rect x="163.118" y="93.881" fill-rule="evenodd" clip-rule="evenodd" fill="#CDE1D8" width="101.018" height="271.907"/>
						<rect x="80.154" y="111.358" fill-rule="evenodd" clip-rule="evenodd" fill="#CDE1D8" width="101.018" height="234.898"/>
						<rect x="-37.634" y="158.646" fill-rule="evenodd" clip-rule="evenodd" fill="#336699" width="130.722" height="234.898"/>
						<path fill-rule="evenodd" clip-rule="evenodd" fill="#DEEE95" d="M63.995,200.045c122.185,0,221.236,92.971,221.236,207.656
							S186.18,615.358,63.995,615.358c-53.149,0-101.914-17.597-140.06-46.915V246.96
							C-37.919,217.643,10.846,200.045,63.995,200.045z"/>
						<ellipse fill-rule="evenodd" clip-rule="evenodd" fill="#DEEE95" cx="330.298" cy="395.366" rx="173.046" ry="162.424"/>
						<ellipse fill-rule="evenodd" clip-rule="evenodd" fill="#DEEE95" cx="414.287" cy="360.413" rx="173.046" ry="162.424"/>
						<ellipse fill-rule="evenodd" clip-rule="evenodd" fill="#DEEE95" cx="559.73" cy="428.262" rx="173.046" ry="162.424"/>
						<ellipse fill-rule="evenodd" clip-rule="evenodd" fill="#DEEE95" cx="1377.075" cy="348.077" rx="173.046" ry="162.424"/>
						<ellipse fill-rule="evenodd" clip-rule="evenodd" fill="#DEEE95" cx="1573.73" cy="450.877" rx="173.046" ry="162.424"/>
						<path fill-rule="evenodd" clip-rule="evenodd" fill="#DEEE95" d="M1788.636,489.003
							c-86.813-8.719-154.425-77.687-154.425-161.486s67.612-152.767,154.425-161.486V489.003z"/>
						<path fill-rule="evenodd" clip-rule="evenodd" fill="#F3FCC5" d="M896.698,627.697c332.966,0,640.99-10.91,891.938-29.417
							V344.597c-250.947-18.507-558.972-29.418-891.938-29.418c-369.634,0-708.583,13.438-972.763,35.799v240.92
							C188.115,614.259,527.064,627.697,896.698,627.697z"/>
						<path fill-rule="evenodd" clip-rule="evenodd" fill="#99A658" d="M896.698,619.473c329.239,0,635.622-8.867,891.938-24.102
							V347.511c-256.316-15.235-562.698-24.102-891.938-24.102c-364.585,0-701.2,10.865-972.763,29.22v237.624
							C195.499,608.607,532.113,619.473,896.698,619.473z"/>
						<path fill-rule="evenodd" clip-rule="evenodd" fill="#B8C76A" d="M1255.701,619.473c190.319,0,370.831-4.876,532.935-13.6
							V337.009c-162.104-8.724-342.616-13.6-532.935-13.6c-702.281,0-1271.593,66.276-1271.593,148.032
							C-15.892,553.197,553.42,619.473,1255.701,619.473z"/>
						<path fill-rule="evenodd" clip-rule="evenodd" fill="#CEDC6B" d="M1564.505,619.473c77.175,0,152.208-1.317,224.131-3.789
							V345.697c-71.924-2.472-146.956-3.789-224.131-3.789c-531.734,0-962.789,62.135-962.789,138.783
							C601.716,557.338,1032.771,619.473,1564.505,619.473z"/>
						<polygon fill-rule="evenodd" clip-rule="evenodd" fill="#FEFEFE" points="163.339,637.977 1619.816,637.977 1181.754,325.464 
							616.966,325.464 						"/>
						<polygon fill-rule="evenodd" clip-rule="evenodd" fill="#C8B77F" points="220.682,637.977 1562.473,637.977 1158.905,323.145 
							638.59,323.145 						"/>
						<g>
							<path fill-rule="evenodd" clip-rule="evenodd" fill="#B78224" d="M1520.217,288.963h-4.609c-1.408,0-2.561,1.159-2.561,2.57
								v39.063c0,19.504,15.904,35.466,35.336,35.466h35.337v-10.794h-28.167c-19.435,0-35.336-15.959-35.336-35.466V288.963z"/>
							<rect x="1566.308" y="199.527" fill-rule="evenodd" clip-rule="evenodd" fill="#B78224" width="23.557" height="288.869"/>
							<ellipse fill-rule="evenodd" clip-rule="evenodd" fill="#CEDC6B" cx="1497.431" cy="190.021" rx="97.556" ry="97.915"/>
							<ellipse fill-rule="evenodd" clip-rule="evenodd" fill="#B7B425" cx="1502.805" cy="195.416" rx="92.182" ry="92.52"/>
							<ellipse fill-rule="evenodd" clip-rule="evenodd" fill="#CEDC6B" cx="1584.999" cy="128.85" rx="96.024" ry="96.377"/>
							<ellipse fill-rule="evenodd" clip-rule="evenodd" fill="#B7B425" cx="1588.842" cy="132.707" rx="92.182" ry="92.52"/>
							<ellipse fill-rule="evenodd" clip-rule="evenodd" fill="#CEDC6B" cx="1519.963" cy="247.588" rx="92.951" ry="93.292"/>
							<ellipse fill-rule="evenodd" clip-rule="evenodd" fill="#B7A926" cx="1524.059" cy="251.698" rx="88.855" ry="89.181"/>
							<ellipse fill-rule="evenodd" clip-rule="evenodd" fill="#CEDC6B" cx="1643.64" cy="216.489" rx="67.088" ry="67.334"/>
							<ellipse fill-rule="evenodd" clip-rule="evenodd" fill="#B7AE2B" cx="1647.737" cy="220.6" rx="62.992" ry="63.223"/>
							<path fill-rule="evenodd" clip-rule="evenodd" fill="#B78224" d="M1647.224,235.506h4.609c1.409,0,2.561,1.156,2.561,2.57
								v71.96c0,19.506-15.901,35.466-35.336,35.466h-35.336v-10.794h28.167c19.435,0,35.336-15.959,35.336-35.466V235.506z"/>
						</g>
						<g>
							<ellipse fill-rule="evenodd" clip-rule="evenodd" fill="#CEDC6B" cx="196.813" cy="249.96" rx="76.44" ry="76.72"/>
							<ellipse fill-rule="evenodd" clip-rule="evenodd" fill="#B7B425" cx="192.602" cy="254.187" rx="72.228" ry="72.493"/>
							<ellipse fill-rule="evenodd" clip-rule="evenodd" fill="#CEDC6B" cx="238.348" cy="294.755" rx="62.397" ry="62.626"/>
							<ellipse fill-rule="evenodd" clip-rule="evenodd" fill="#B7AE2B" cx="234.538" cy="298.579" rx="58.587" ry="58.803"/>
							<path fill-rule="evenodd" clip-rule="evenodd" fill="#B78224" d="M305.965,302.814h3.611c1.104,0,2.006,0.908,2.006,2.014
								v30.607c0,15.282-12.461,27.789-27.688,27.789h-27.688v-8.458h22.07c15.228,0,27.688-12.505,27.688-27.789V302.814z"/>
							<rect x="251.392" y="232.736" fill-rule="evenodd" clip-rule="evenodd" fill="#B78224" width="18.458" height="226.341"/>
							<ellipse fill-rule="evenodd" clip-rule="evenodd" fill="#CEDC6B" cx="323.819" cy="225.288" rx="76.44" ry="76.72"/>
							<ellipse fill-rule="evenodd" clip-rule="evenodd" fill="#B7B425" cx="319.608" cy="229.515" rx="72.229" ry="72.493"/>
							<ellipse fill-rule="evenodd" clip-rule="evenodd" fill="#CEDC6B" cx="255.205" cy="177.358" rx="75.24" ry="75.515"/>
							<ellipse fill-rule="evenodd" clip-rule="evenodd" fill="#B7B425" cx="252.195" cy="180.38" rx="72.229" ry="72.493"/>
							<ellipse fill-rule="evenodd" clip-rule="evenodd" fill="#CEDC6B" cx="306.164" cy="270.394" rx="72.831" ry="73.098"/>
							<ellipse fill-rule="evenodd" clip-rule="evenodd" fill="#B7A926" cx="302.955" cy="273.615" rx="69.622" ry="69.877"/>
							<path fill-rule="evenodd" clip-rule="evenodd" fill="#B78224" d="M206.45,260.928h-3.611c-1.104,0-2.006,0.906-2.006,2.014
								v56.384c0,15.284,12.459,27.79,27.688,27.79h27.688v-8.458h-22.07c-15.228,0-27.688-12.505-27.688-27.789V260.928z"/>
							<ellipse fill-rule="evenodd" clip-rule="evenodd" fill="#CEDC6B" cx="209.258" cy="246.027" rx="52.566" ry="52.759"/>
							<ellipse fill-rule="evenodd" clip-rule="evenodd" fill="#B7AE2B" cx="206.048" cy="249.248" rx="49.357" ry="49.538"/>
						</g>
						<g>
							<path fill-rule="evenodd" clip-rule="evenodd" fill="#CEDC6B" d="M1774.107,113.959
								c-65.363,0-118.351,53.182-118.351,118.785c0,65.603,52.988,118.785,118.351,118.785c4.919,0,9.767-0.307,14.529-0.892
								V114.85C1783.874,114.265,1779.027,113.959,1774.107,113.959z"/>
							<path fill-rule="evenodd" clip-rule="evenodd" fill="#B7B425" d="M1767.587,127.047c-61.762,0-111.83,50.252-111.83,112.241
								c0,61.988,50.068,112.24,111.83,112.24c7.196,0,14.231-0.691,21.049-1.994V129.041
								C1781.818,127.738,1774.783,127.047,1767.587,127.047z"/>
						</g>
						<g>
							<path fill-rule="evenodd" clip-rule="evenodd" fill="#CEDC6B" d="M-76.065,460.921c50.497-2.331,90.726-44.156,90.726-95.414
								c0-51.26-40.229-93.083-90.726-95.415V460.921z"/>
							<path fill-rule="evenodd" clip-rule="evenodd" fill="#B7AE2B" d="M-76.065,460.437c44.521-5.108,79.104-43.046,79.104-89.098
								c0-46.052-34.583-83.991-79.104-89.099V460.437z"/>
							<path fill-rule="evenodd" clip-rule="evenodd" fill="#B78224" d="M22.623,377.797h5.508c1.683,0,3.06,1.386,3.06,3.072
								v46.684c0,23.309-19.006,42.386-42.231,42.386h-42.231v-12.9h33.663c23.227,0,42.231-19.073,42.231-42.386V377.797z"/>
							<ellipse fill-rule="evenodd" clip-rule="evenodd" fill="#CEDC6B" cx="49.855" cy="259.55" rx="116.591" ry="117.019"/>
							<ellipse fill-rule="evenodd" clip-rule="evenodd" fill="#B7B425" cx="43.431" cy="265.997" rx="110.167" ry="110.572"/>
							<path fill-rule="evenodd" clip-rule="evenodd" fill="#CEDC6B" d="M-54.799,71.264c-7.267,0-14.374,0.686-21.266,1.982
								v226.397c6.892,1.296,13.999,1.982,21.266,1.982c63.38,0,114.76-51.568,114.76-115.18
								C59.96,122.832,8.581,71.264-54.799,71.264z"/>
							<path fill-rule="evenodd" clip-rule="evenodd" fill="#B7B425" d="M-59.391,80.482c-5.668,0-11.236,0.431-16.674,1.26v218.624
								c5.438,0.829,11.005,1.26,16.674,1.26c60.844,0,110.168-49.504,110.168-110.572C50.776,129.987,1.452,80.482-59.391,80.482z"
								/>
							<path fill-rule="evenodd" clip-rule="evenodd" fill="#CEDC6B" d="M22.926,216.855c-43.184,0-80.611,24.732-98.991,60.853
								V378.99c18.38,36.12,55.808,60.853,98.991,60.853c61.351,0,111.086-49.918,111.086-111.494
								C134.012,266.772,84.278,216.855,22.926,216.855z"/>
							<path fill-rule="evenodd" clip-rule="evenodd" fill="#B7A926" d="M18.031,226.68c-40.872,0-76.344,23.179-94.096,57.151
								v98.86c17.752,33.972,53.225,57.151,94.096,57.151c58.648,0,106.192-47.718,106.192-106.581
								C124.223,274.399,76.679,226.68,18.031,226.68z"/>
						</g>
						<g>
							<path fill-rule="evenodd" clip-rule="evenodd" fill="#B78224" d="M1325.654,283.902h-1.506c-0.461,0-0.837,0.378-0.837,0.84
								v12.764c0,6.373,5.197,11.589,11.547,11.589h11.547v-3.527h-9.204c-6.351,0-11.547-5.215-11.547-11.589V283.902z"/>
							<rect x="1340.715" y="254.676" fill-rule="evenodd" clip-rule="evenodd" fill="#B78224" width="7.698" height="94.394"/>
							<ellipse fill-rule="evenodd" clip-rule="evenodd" fill="#CEDC6B" cx="1318.208" cy="251.57" rx="31.879" ry="31.996"/>
							<ellipse fill-rule="evenodd" clip-rule="evenodd" fill="#B7B425" cx="1319.965" cy="253.333" rx="30.122" ry="30.233"/>
							<ellipse fill-rule="evenodd" clip-rule="evenodd" fill="#CEDC6B" cx="1346.823" cy="231.581" rx="31.378" ry="31.493"/>
							<ellipse fill-rule="evenodd" clip-rule="evenodd" fill="#B7B425" cx="1348.079" cy="232.842" rx="30.122" ry="30.233"/>
							<ellipse fill-rule="evenodd" clip-rule="evenodd" fill="#CEDC6B" cx="1325.571" cy="270.381" rx="30.374" ry="30.485"/>
							<ellipse fill-rule="evenodd" clip-rule="evenodd" fill="#B7A926" cx="1326.91" cy="271.724" rx="29.035" ry="29.142"/>
							<ellipse fill-rule="evenodd" clip-rule="evenodd" fill="#CEDC6B" cx="1365.985" cy="260.219" rx="21.923" ry="22.003"/>
							<ellipse fill-rule="evenodd" clip-rule="evenodd" fill="#B7AE2B" cx="1367.324" cy="261.562" rx="20.584" ry="20.66"/>
							<path fill-rule="evenodd" clip-rule="evenodd" fill="#B78224" d="M1367.156,266.433h1.506c0.46,0,0.837,0.378,0.837,0.84
								v23.514c0,6.374-5.196,11.59-11.547,11.59h-11.547v-3.527h9.204c6.351,0,11.547-5.215,11.547-11.589V266.433z"/>
						</g>
						<g>
							<ellipse fill-rule="evenodd" clip-rule="evenodd" fill="#CEDC6B" cx="469.683" cy="279.6" rx="27.478" ry="27.578"/>
							<ellipse fill-rule="evenodd" clip-rule="evenodd" fill="#B7B425" cx="468.169" cy="281.119" rx="25.964" ry="26.059"/>
							<ellipse fill-rule="evenodd" clip-rule="evenodd" fill="#CEDC6B" cx="484.613" cy="295.702" rx="22.429" ry="22.512"/>
							<ellipse fill-rule="evenodd" clip-rule="evenodd" fill="#B7AE2B" cx="483.244" cy="297.077" rx="21.06" ry="21.137"/>
							<path fill-rule="evenodd" clip-rule="evenodd" fill="#B78224" d="M508.92,298.599h1.298c0.397,0,0.721,0.326,0.721,0.724
								v11.002c0,5.494-4.479,9.989-9.953,9.989h-9.953v-3.04h7.933c5.474,0,9.953-4.495,9.953-9.989V298.599z"/>
							<rect x="489.302" y="273.409" fill-rule="evenodd" clip-rule="evenodd" fill="#B78224" width="6.635" height="81.361"/>
							<ellipse fill-rule="evenodd" clip-rule="evenodd" fill="#CEDC6B" cx="515.337" cy="270.731" rx="27.477" ry="27.578"/>
							<ellipse fill-rule="evenodd" clip-rule="evenodd" fill="#B7B425" cx="513.823" cy="272.251" rx="25.963" ry="26.059"/>
							<ellipse fill-rule="evenodd" clip-rule="evenodd" fill="#CEDC6B" cx="490.673" cy="253.502" rx="27.046" ry="27.145"/>
							<ellipse fill-rule="evenodd" clip-rule="evenodd" fill="#B7B425" cx="489.591" cy="254.589" rx="25.963" ry="26.059"/>
							<ellipse fill-rule="evenodd" clip-rule="evenodd" fill="#CEDC6B" cx="508.991" cy="286.945" rx="26.18" ry="26.276"/>
							<ellipse fill-rule="evenodd" clip-rule="evenodd" fill="#B7A926" cx="507.837" cy="288.103" rx="25.027" ry="25.118"/>
							<path fill-rule="evenodd" clip-rule="evenodd" fill="#B78224" d="M473.147,283.542h-1.298c-0.397,0-0.721,0.326-0.721,0.724
								v20.268c0,5.494,4.479,9.989,9.953,9.989h9.953v-3.04H483.1c-5.474,0-9.953-4.495-9.953-9.989V283.542z"/>
							<ellipse fill-rule="evenodd" clip-rule="evenodd" fill="#CEDC6B" cx="474.157" cy="278.186" rx="18.896" ry="18.965"/>
							<ellipse fill-rule="evenodd" clip-rule="evenodd" fill="#B7AE2B" cx="473.003" cy="279.344" rx="17.742" ry="17.807"/>
						</g>
						<g>
							<path fill-rule="evenodd" clip-rule="evenodd" fill="#C7EAFB" d="M546.443,83.537h51.292
								c16.947,0,29.967,8.866,29.967,22.348c0,1.799-1.458,3.27-3.239,3.27H521.335c-2.079,0-3.779-1.717-3.779-3.815
								C517.556,96.105,527.236,83.537,546.443,83.537z"/>
							<ellipse fill-rule="evenodd" clip-rule="evenodd" fill="#C7EAFB" cx="563.72" cy="84.627" rx="25.107" ry="16.897"/>
						</g>
						<g>
							<path fill-rule="evenodd" clip-rule="evenodd" fill="#C7EAFB" d="M702.217,250.432H741c12.814,0,22.658,6.704,22.658,16.897
								c0,1.36-1.102,2.473-2.449,2.473h-77.975c-1.572,0-2.858-1.298-2.858-2.885C680.376,259.935,687.695,250.432,702.217,250.432
								z"/>
							<ellipse fill-rule="evenodd" clip-rule="evenodd" fill="#C7EAFB" cx="723.584" cy="251.256" rx="18.983" ry="12.776"/>
						</g>
						<g>
							<path fill-rule="evenodd" clip-rule="evenodd" fill="#C7EAFB" d="M1116.629,91.538h31.226
								c10.318,0,18.244,5.398,18.244,13.605c0,1.095-0.888,1.991-1.972,1.991h-62.783c-1.266,0-2.301-1.045-2.301-2.323
								C1099.043,99.19,1104.936,91.538,1116.629,91.538z"/>
							<ellipse fill-rule="evenodd" clip-rule="evenodd" fill="#C7EAFB" cx="1127.147" cy="92.202" rx="15.284" ry="10.287"/>
						</g>
						<g>
							<path fill-rule="evenodd" clip-rule="evenodd" fill="#C7EAFB" d="M899.547,253.502h22.518c7.441,0,13.156,3.893,13.156,9.811
								c0,0.79-0.64,1.436-1.422,1.436h-45.276c-0.913,0-1.659-0.754-1.659-1.675C886.865,259.021,891.115,253.502,899.547,253.502z
								"/>
							<ellipse fill-rule="evenodd" clip-rule="evenodd" fill="#C7EAFB" cx="907.133" cy="253.981" rx="11.022" ry="7.418"/>
						</g>
						<g>
							<path fill-rule="evenodd" clip-rule="evenodd" fill="#C7EAFB" d="M40.183,75.453h29.044c9.596,0,16.968,5.021,16.968,12.654
								c0,1.019-0.825,1.852-1.834,1.852H25.966c-1.178,0-2.14-0.972-2.14-2.16C23.826,82.57,29.307,75.453,40.183,75.453z"/>
							<ellipse fill-rule="evenodd" clip-rule="evenodd" fill="#C7EAFB" cx="56.184" cy="76.07" rx="14.216" ry="9.568"/>
						</g>
					</g>
					<path fill-rule="evenodd" clip-rule="evenodd" fill="#FEFEFE" d="M856.757,323.916c5.284,0,10.573,0,15.864,0
						c5.29,0,10.589,0,15.888,0c0.563,11.421,1.162,23.422,1.799,36.295c-5.846-0.017-11.686-0.034-17.518-0.05
						c-5.832-0.016-11.669,0.064-17.49,0.047C855.817,347.371,856.301,335.306,856.757,323.916z"/>
					<path fill-rule="evenodd" clip-rule="evenodd" fill="#FEFEFE" d="M854.68,375.554c6.052,0.024,12.116,0.095,18.183,0.071
						c6.06-0.025,12.134-0.049,18.212-0.025c0.738,14.808,1.538,30.875,2.397,48.2c-6.802-0.046-13.601-0.043-20.387-0.041
						c-6.786,0.002-13.572-0.091-20.346-0.041C853.434,406.441,854.082,390.322,854.68,375.554z"/>
					<path fill-rule="evenodd" clip-rule="evenodd" fill="#FEFEFE" d="M851.86,445.532c7.1-0.041,14.214-0.033,21.327-0.026
						c7.113,0.007,14.24,0.015,21.37,0.071c1.029,20.712,2.144,43.167,3.374,67.847c-8.155-0.087-16.3-0.126-24.431-0.164
						c-8.13-0.038-16.261-0.077-24.372-0.067C850.124,488.58,851.027,466.188,851.86,445.532z"/>
					<path fill-rule="evenodd" clip-rule="evenodd" fill="#FEFEFE" d="M847.911,543.404c8.563,0.004,17.147,0.057,25.731,0.109
						c8.584,0.052,17.184,0.105,25.793,0.206c1.505,30.197,3.19,64.073,5.06,101.723c-10.14-0.051-20.267-0.199-30.382-0.249
						c-10.103-0.05-20.212-0.198-30.297-0.248C845.33,607.397,846.693,573.615,847.911,543.404z"/>
				</g>
			</g>
			<path fill-rule="evenodd" clip-rule="evenodd" fill="#4D4D4D" d="M1753.547,345.829L1636.17,546.272
				c-19.573,33.425-68.374,70.592-106.864,70.592H153.415c-40.368,0-57.121-36.776-73.404-74.035L-45.99,254.507v-9.317
				L80.011,519.702c16.209,35.314,33.035,69.84,73.404,69.84h1375.891c38.491,0,87.339-34.848,106.864-66.591l117.376-190.83
				V345.829z"/>
			<path fill-rule="evenodd" clip-rule="evenodd" fill="#333333" d="M1753.547,962.333c-177.164-1.185-446.109-3.825-476.348,14.114
				c-22.558,13.194-37.543,59.5-39.356,102.469h515.704V962.333z"/>
			<path fill-rule="evenodd" clip-rule="evenodd" fill="#1A1A1A" d="M835.549,154.571h82.236v28.495
				c0,15.672-12.823,28.495-28.495,28.495h-25.246c-15.672,0-28.495-12.823-28.495-28.495V154.571z"/>
			<rect x="848.149" y="28.563" fill-rule="evenodd" clip-rule="evenodd" fill="#1A1A1A" width="63.667" height="78.257"/>
			<path fill-rule="evenodd" clip-rule="evenodd" fill="#848688" d="M593.151,16.294h574.991c2.918,0,8.1,4.47,5.306,5.305
				c-61.21,18.299-102.258,55.708-102.401,55.708H680.696c-0.1,0-38.615-38.563-92.851-55.708
				C585.063,20.72,590.233,16.294,593.151,16.294z"/>
			<path fill-rule="evenodd" clip-rule="evenodd" fill="#333333" d="M-45.99-39.64h1772.808c0,32.168,0,64.337,0,96.505
				C1129.298,19.484,530.104,30.687-45.99,55.785V-39.64z"/>
			<path fill-rule="evenodd" clip-rule="evenodd" fill="#727376" d="M753.18-31.787h262.626v43.771
				c0,15.32-12.534,27.854-27.854,27.854H778.381c-13.861,0-25.201-11.34-25.201-25.202V-31.787z"/>
			<path fill-rule="evenodd" clip-rule="evenodd" fill="#4D4D4D" d="M740.397-31.787h288.191V1.547
				c0,11.667-9.546,21.213-21.213,21.213H759.59c-10.556,0-19.193-8.636-19.193-19.192V-31.787z"/>
			<path fill-rule="evenodd" clip-rule="evenodd" fill="#4D4D4D" d="M736.301,88.813h278.741c30.211,0,54.929,24.718,54.929,54.929
				v28.978c0,14.273-11.677,25.95-25.95,25.95H702.998c-11.894,0-21.625-9.731-21.625-21.625v-33.304
				C681.372,113.531,706.09,88.813,736.301,88.813z"/>
			<path fill-rule="evenodd" clip-rule="evenodd" fill="#A9ABAE" d="M741.013,91.715h269.317c26.794,0,48.716,21.922,48.716,48.716
				v25.701c0,12.658-10.357,23.015-23.016,23.015H711.477c-10.549,0-19.18-8.63-19.18-19.18v-29.537
				C692.297,113.638,714.219,91.715,741.013,91.715z"/>
			<path fill-rule="evenodd" clip-rule="evenodd" fill="#00AFEF" d="M746.671,101.796h258.003c20.987,0,38.157,17.171,38.157,38.157
				v20.131c0,9.915-8.112,18.027-18.027,18.027H723.536c-8.263,0-15.023-6.76-15.023-15.023v-23.136
				C708.513,118.967,725.684,101.796,746.671,101.796z"/>
			<g>
				<defs>
					<path id="SVGID_6_" d="M746.671,101.796h258.003c20.987,0,38.157,17.171,38.157,38.157v20.131
						c0,9.915-8.112,18.027-18.027,18.027H723.536c-8.263,0-15.023-6.76-15.023-15.023v-23.136
						C708.513,118.967,725.684,101.796,746.671,101.796z"/>
				</defs>
				<clipPath id="SVGID_7_">
					<use xlink:href="#SVGID_6_"  overflow="visible"/>
				</clipPath>
				<g clip-path="url(#SVGID_7_)">
					<polygon fill-rule="evenodd" clip-rule="evenodd" fill="#BDF0EC" points="873.631,33.476 824.502,44.093 723.653,242.254 
						747.005,275.237 					"/>
					<polygon fill-rule="evenodd" clip-rule="evenodd" fill="#BDF0EC" points="798.305,53.046 777.587,61.351 698.693,216.372 
						702.282,234.721 					"/>
					<polygon fill-rule="evenodd" clip-rule="evenodd" fill="#BDF0EC" points="1037.342,75.585 1003.541,82.89 934.156,219.226 
						950.222,241.919 					"/>
					<polygon fill-rule="evenodd" clip-rule="evenodd" fill="#BDF0EC" points="985.517,89.049 971.262,94.764 916.983,201.419 
						919.452,214.043 					"/>
				</g>
			</g>
			<path fill-rule="evenodd" clip-rule="evenodd" fill="#4B4B4D" d="M1334.918,765.356h417.331c0.435,0,0.867,0.012,1.298,0.03
				v165.161c-0.431,0.018-0.863,0.03-1.298,0.03h-417.331c-16.602,0-30.184-13.583-30.184-30.185V795.541
				C1304.733,778.939,1318.316,765.356,1334.918,765.356z"/>
			<path fill-rule="evenodd" clip-rule="evenodd" fill="#232122" d="M775.101,1078.915c61.315-53.161,97.985-120.517,97.985-193.805
				c0-171.792-201.374-311.056-449.782-311.056S-26.478,713.319-26.478,885.111c0,73.288,36.67,140.643,97.985,193.805H775.101z"/>
			<polygon fill-rule="evenodd" clip-rule="evenodd" points="1212.231,976.102 785.714,985.58 810.701,1074.33 1178.627,1069.16 			
				"/>
			<path fill-rule="evenodd" clip-rule="evenodd" fill="#606062" d="M748.233,716.37h485.11v208.52
				c0,148.712-485.11,143.662-485.11,12.063V716.37z"/>
			<circle fill-rule="evenodd" clip-rule="evenodd" cx="992.942" cy="849.064" r="39.205"/>
			<path fill-rule="evenodd" clip-rule="evenodd" d="M954.06,854.406h77.656l-10.34,67.898c-0.641,4.212-3.494,7.755-7.755,7.755
				H976.83c-4.972,0-8.044-4.174-9.047-9.048L954.06,854.406z"/>
			<path fill-rule="evenodd" clip-rule="evenodd" fill="#333333" d="M889.544,820.575h25.677c9.952,0,15.926,8.383,18.095,18.095
				l16.544,74.102c1.032,4.622-3.881,8.616-8.617,8.616h-18.31c-20.495,0-33.062-17.206-37.266-37.267l-10.34-49.329
				C873.722,827.14,881.724,820.575,889.544,820.575z"/>
			<path fill-rule="evenodd" clip-rule="evenodd" fill="#333333" d="M1111.265,818.852h-25.677c-9.952,0-15.926,8.383-18.094,18.095
				l-16.544,74.102c-1.032,4.622,3.88,8.616,8.616,8.616h18.31c20.495,0,33.062-17.206,37.266-37.266l10.34-49.329
				C1127.087,825.417,1119.084,818.852,1111.265,818.852z"/>
			<path fill-rule="evenodd" clip-rule="evenodd" fill="#96989A" d="M743.203,767.258c25.391-1.001,65.149,5.052,80.396,20.299
				c21.9,12.999,75.084,193.764,81.259,250.765c-89.979-13.347-161.655-46.868-161.655-99.099V767.258z"/>
			<path fill-rule="evenodd" clip-rule="evenodd" fill="#4B4B4D" d="M771.928,790.647c14.418-0.569,39.064,7.005,47.722,15.663
				c12.436,7.382,46.773,141.051,50.279,173.42c-51.095-7.579-90.413-26.647-91.797-56.274L771.928,790.647z"/>
			<path fill-rule="evenodd" clip-rule="evenodd" fill="#96989A" d="M1245.737,770.704c-25.391-1.001-65.15,5.052-80.396,20.299
				c-21.9,12.999-75.084,193.764-81.259,250.765c89.979-13.347,161.656-46.868,161.656-99.099V770.704z"/>
			<path fill-rule="evenodd" clip-rule="evenodd" fill="#4B4B4D" d="M1217.012,794.094c-14.419-0.569-39.064,7.005-47.722,15.663
				c-12.436,7.382-46.773,141.051-50.28,173.42c51.095-7.579,90.413-26.647,91.797-56.274L1217.012,794.094z"/>
			<ellipse fill-rule="evenodd" clip-rule="evenodd" fill="#848688" cx="801.87" cy="749.487" rx="16.156" ry="16.802"/>
			<ellipse fill-rule="evenodd" clip-rule="evenodd" fill="#848688" cx="1186.167" cy="746.041" rx="16.156" ry="16.802"/>
			<path fill-rule="evenodd" clip-rule="evenodd" fill="#4B4B4D" d="M750.386,718.466h479.94c0-21.67-97.258-56.005-128.045-56.005
				H866.023C835.236,662.461,750.386,696.796,750.386,718.466z"/>
			<path fill-rule="evenodd" clip-rule="evenodd" fill="#6B8BA3" d="M846.461,708.615h293.823c9.004,0,16.371,7.366,16.371,16.371
				v56.87c0,9.004-7.367,16.371-16.371,16.371H846.461c-9.004,0-16.371-7.366-16.371-16.371v-56.87
				C830.09,715.982,837.457,708.615,846.461,708.615z"/>
			<path fill-rule="evenodd" clip-rule="evenodd" fill="#95AABA" d="M852.978,708.615h280.79c8.498,0,15.451,6.953,15.451,15.45
				v53.671c0,8.498-6.953,15.451-15.451,15.451h-280.79c-8.498,0-15.451-6.952-15.451-15.451v-53.671
				C837.527,715.568,844.48,708.615,852.978,708.615z"/>
			<path fill-rule="evenodd" clip-rule="evenodd" fill="#333333" d="M925.086,942.555h138.435c1.478,0,2.687,1.209,2.687,2.687
				v9.333c0,1.478-1.209,2.687-2.687,2.687H925.086c-1.478,0-2.687-1.209-2.687-2.687v-9.333
				C922.4,943.764,923.609,942.555,925.086,942.555z"/>
			<path fill-rule="evenodd" clip-rule="evenodd" fill="#333333" d="M924.957,962.058h138.435c1.478,0,2.687,1.209,2.687,2.687
				v9.333c0,1.478-1.209,2.687-2.687,2.687H924.957c-1.478,0-2.687-1.209-2.687-2.687v-9.333
				C922.271,963.266,923.479,962.058,924.957,962.058z"/>
			<path fill-rule="evenodd" clip-rule="evenodd" fill="#333333" d="M924.801,981.37h138.435c1.478,0,2.687,1.209,2.687,2.687v9.333
				c0,1.478-1.209,2.687-2.687,2.687H924.801c-1.478,0-2.687-1.209-2.687-2.687v-9.333
				C922.114,982.579,923.323,981.37,924.801,981.37z"/>
			<path fill-rule="evenodd" clip-rule="evenodd" fill="#333333" d="M925.28,1000.873h138.435c1.478,0,2.687,1.209,2.687,2.687
				v9.333c0,1.478-1.209,2.687-2.687,2.687H925.28c-1.478,0-2.687-1.209-2.687-2.687v-9.333
				C922.594,1002.082,923.802,1000.873,925.28,1000.873z"/>
			<path fill-rule="evenodd" clip-rule="evenodd" fill="#4B4B4D" d="M642.156,1078.915
				c83.215-45.007,136.711-115.083,136.711-193.805c0-135.805-159.191-245.897-355.563-245.897
				c-196.372,0-355.563,110.092-355.563,245.897c0,78.721,53.496,148.798,136.711,193.805H642.156z"/>
			<g>
				<circle fill-rule="evenodd" clip-rule="evenodd" fill="#6B8BA3" cx="538.297" cy="782.49" r="105.721"/>
				
					<circle fill-rule="evenodd" clip-rule="evenodd" fill="#6B8BA3" stroke="#91D8F7" stroke-width="4.7999" stroke-miterlimit="22.9256" stroke-dasharray="4.7999,4.7999" cx="538.297" cy="782.49" r="90.294"/>
				<polygon fill-rule="evenodd" clip-rule="evenodd" fill="#91D8F7" points="546.01,781.354 531.036,777.724 553.497,710.117 				
					"/>
				<circle fill-rule="evenodd" clip-rule="evenodd" fill="#D2D3D5" cx="538.297" cy="782.49" r="17.243"/>
				<circle fill-rule="evenodd" clip-rule="evenodd" fill="#6B8BA3" cx="286.471" cy="781.922" r="105.721"/>
				
					<circle fill-rule="evenodd" clip-rule="evenodd" fill="#6B8BA3" stroke="#91D8F7" stroke-width="4.7999" stroke-miterlimit="22.9256" stroke-dasharray="4.7999,4.7999" cx="286.471" cy="781.922" r="90.294"/>
				<polygon fill-rule="evenodd" clip-rule="evenodd" fill="#91D8F7" points="277.628,779.135 287.342,791.094 228.516,831.277 				
					"/>
				<circle fill-rule="evenodd" clip-rule="evenodd" fill="#D2D3D5" cx="284.453" cy="782.904" r="17.243"/>
			</g>
			<rect x="856.599" y="723.912" fill-rule="evenodd" clip-rule="evenodd" fill="#6B8BA3" width="268.835" height="16.027"/>
			<rect x="855.565" y="751.83" fill-rule="evenodd" clip-rule="evenodd" fill="#6B8BA3" width="113.738" height="16.027"/>
			<ellipse fill-rule="evenodd" clip-rule="evenodd" fill="#848688" cx="1003.152" cy="767.755" rx="16.156" ry="16.802"/>
			<ellipse fill-rule="evenodd" clip-rule="evenodd" fill="#848688" cx="1052.783" cy="767.238" rx="16.156" ry="16.802"/>
			<ellipse fill-rule="evenodd" clip-rule="evenodd" fill="#848688" cx="1101.897" cy="767.755" rx="16.156" ry="16.802"/>
			<path fill-rule="evenodd" clip-rule="evenodd" fill="#4D4D4D" d="M424.597,523.441c185.761,0,336.35,150.971,336.35,337.205
				c0,83.255-30.112,159.447-79.991,218.27h-76.865c62.702-51.884,102.666-130.398,102.666-218.27
				c0-156.229-126.328-282.877-282.161-282.877c-155.833,0-282.161,126.648-282.161,282.877c0,87.872,39.965,166.386,102.666,218.27
				h-76.865c-49.879-58.823-79.991-135.015-79.991-218.27C88.246,674.413,238.835,523.441,424.597,523.441z"/>
			<polygon fill-rule="evenodd" clip-rule="evenodd" fill="#4D4D4D" points="119.883,895.49 130.888,824.53 313.386,792.276 
				527.982,792.276 710.48,824.53 702.226,895.49 492.216,921.293 280.371,904.091 			"/>
			<path fill-rule="evenodd" clip-rule="evenodd" fill="#727376" d="M418.393,537.557c182.335,0,330.147,147.811,330.147,330.146
				c0,80.34-28.709,153.968-76.411,211.212h-74.608c59.842-50.802,97.829-126.565,97.829-211.212
				c0-152.959-123.998-276.956-276.957-276.956c-152.959,0-276.956,123.998-276.956,276.956c0,84.647,37.987,160.41,97.828,211.212
				h-74.608c-47.702-57.244-76.411-130.872-76.411-211.212C88.246,685.368,236.058,537.557,418.393,537.557z"/>
			<polygon fill-rule="evenodd" clip-rule="evenodd" fill="#727376" points="119.883,899.283 130.888,838.756 313.386,811.244 
				527.982,811.244 710.48,838.756 702.226,899.283 492.216,921.293 280.371,906.62 			"/>
			<path fill-rule="evenodd" clip-rule="evenodd" fill="#373435" d="M346.401,793.819h118.303c31.777,0,57.775,25.999,57.775,57.776
				V997.41c0,31.777-25.998,57.775-57.775,57.775H346.401c-31.777,0-57.775-25.999-57.775-57.775V851.595
				C288.625,819.818,314.624,793.819,346.401,793.819z"/>
			<path fill-rule="evenodd" clip-rule="evenodd" fill="#F9C999" d="M676.527,1078.915c0.986-37.758-3.202-72.628-13.455-91.758
				c-12.867-24.007-19.573-144.53,21.99-86.741c24.581,34.178,58.895-50.24,80.464-50.24c37.087,0,6.339,28.996,33.928,32.11
				c14.872,1.679,4.776,28.13,16.982,32.315c24.645,8.45-0.607,66.404-12.487,81.167c-15.211,18.902-21.442,25.604-27.091,42.428
				c-3.791,11.292-6.204,25.272-7.515,40.719H676.527z"/>
			<path fill-rule="evenodd" clip-rule="evenodd" fill="#F9C999" d="M220.831,1078.915c-17.208-62.161-19.923-150.37,1.439-183.783
				c24.599-38.475-6.703-147.693-35.902-136.224c-19.755,7.759,10.905,46.062,3.831,53.878
				c-28.251,31.213-71.044-87.722-92.613-87.722c-35.236,0,4.513,49.008,0.192,58.522c-1.511,3.325-4.743,5.869-11.889,6.675
				c-14.872,1.679-4.776,28.131-16.981,32.315c-24.645,8.45,0.607,66.404,12.487,81.167c15.21,18.902,21.442,25.604,27.091,42.428
				c10.723,31.933,10.44,85.331,5.28,132.743H220.831z"/>
		</g>
	</g>
</g>
<g id="Vexels">
	<g>
		<g>
			<path fill="#FFFFFF" d="M1482.349,939.431l-0.842-1.822c-0.411-0.876-1.514-1.283-2.439-0.907
				c-0.999,0.343-1.448,1.377-1.035,2.221l0.948,2.052l7.479,16.228c0.072,0.064,0.135,0.188,0.171,0.25
				c0,0.031,0.039,0.031,0.039,0.031c0.033,0.064,0.103,0.124,0.172,0.191c0,0.061,0.032,0.061,0.032,0.091
				c0.1,0.064,0.171,0.096,0.24,0.158c0.033,0,0.033,0,0.033,0c0.105,0.062,0.243,0.155,0.311,0.186c0.034,0,0.034,0,0.034,0
				s0.036,0,0.036,0.033c0.068,0,0.204,0.031,0.276,0.059c0.03,0,0.067,0,0.067,0c0.106,0.031,0.241,0.031,0.348,0.031
				c0.1,0,0.206,0,0.342-0.031c0.032,0,0.066,0,0.066,0c0.103-0.028,0.172-0.059,0.276-0.059c0.037-0.033,0.037-0.033,0.068-0.033
				c0.103-0.031,0.21-0.124,0.276-0.159c0.07-0.027,0.07-0.027,0.07-0.027c0.069-0.062,0.136-0.094,0.203-0.158
				c0.038-0.03,0.038-0.03,0.072-0.091c0.035-0.067,0.136-0.127,0.169-0.191c0.035,0,0.035,0,0.035-0.031
				c0.072-0.062,0.108-0.187,0.141-0.25l0.321-0.689l-2.038-4.414L1482.349,939.431z M1555.303,939.301
				c0.584-0.784,0.451-1.846-0.408-2.381c-0.861-0.594-1.997-0.44-2.648,0.376l-3.921,4.889l2.335,2.855L1555.303,939.301z
				 M1497.395,936.703c-0.926-0.376-2.061,0.03-2.475,0.907l-4.981,10.763l2.043,4.42l6.447-13.869
				C1498.806,938.08,1498.362,937.046,1497.395,936.703z M1453.005,930.086c-0.812-0.81-1.886-1.254-3.028-1.254
				c-1.142,0-2.216,0.444-3.025,1.254l-13.856,13.857c-1.667,1.672-1.667,4.383,0,6.05l13.856,13.859
				c0.81,0.808,1.884,1.25,3.025,1.25c1.143,0,2.217-0.442,3.028-1.246l13.854-13.863c0.809-0.811,1.255-1.881,1.255-3.027
				c0-1.139-0.446-2.214-1.255-3.023L1453.005,930.086z M1464.71,948.212l-13.49,13.487c-0.666,0.665-1.822,0.665-2.48,0
				l-13.491-13.487c-0.687-0.685-0.687-1.801-0.005-2.488l13.495-13.488c0.008-0.011,0.021-0.023,0.035-0.03v11.178
				c-0.55,0.187-1.055,0.481-1.479,0.902c-0.716,0.718-1.109,1.667-1.109,2.68c0,1.013,0.393,1.971,1.109,2.682
				c0.715,0.72,1.668,1.113,2.68,1.113c1.015,0,1.966-0.392,2.687-1.113c1.475-1.476,1.475-3.883,0-5.366
				c-0.424-0.421-0.931-0.711-1.482-0.898v-11.178c0.012,0.007,0.026,0.019,0.038,0.03l13.49,13.488
				c0.332,0.331,0.511,0.776,0.511,1.242C1465.22,947.437,1465.042,947.875,1464.71,948.212z M1548.776,947.374l-2.309-2.88
				l-5.808-7.198c-0.59-0.816-1.791-0.97-2.62-0.376c-0.858,0.534-1.03,1.596-0.447,2.381l6.538,8.073l-6.538,8.14
				c-0.583,0.749-0.41,1.847,0.447,2.379c0.312,0.218,0.693,0.342,1.102,0.342c0.585,0,1.133-0.283,1.517-0.718l5.808-7.232
				l6.204,7.763c0.358,0.448,0.925,0.68,1.452,0.68c0.392,0,0.851-0.182,1.18-0.446c0.781-0.62,0.841-1.743,0.219-2.518
				L1548.776,947.374z M1518.361,936.364c-5.562,0-10.089,4.918-10.089,10.961c0,5.994,4.528,10.876,10.089,10.876
				c3.414,0,6.564-1.864,8.417-4.988c0.448-0.809,0.223-1.811-0.565-2.411c-0.254-0.163-0.555-0.25-0.859-0.25
				c-0.595,0-1.124,0.318-1.409,0.84c-1.166,2.055-3.307,3.326-5.583,3.326c-3.375,0-6.172-2.684-6.673-6.318h15.007
				c0.939,0,1.67-0.728,1.67-1.659l-0.001-0.222C1527.941,940.729,1523.636,936.364,1518.361,936.364z M1511.932,944.959
				c0.914-3.079,3.436-5.113,6.429-5.113c2.934,0,5.468,2.079,6.319,5.113H1511.932z M1604.343,954.663c-0.035,0-2.586,0-2.623,0
				c-0.97,0-2.103-0.56-2.103-2.131v-17.43c0-1.024-0.835-1.858-1.864-1.858c-0.989,0-1.86,0.87-1.86,1.858v17.43
				c0,3.446,2.289,5.672,5.828,5.672c0.044,0,2.602,0,2.647-0.002c0.918-0.068,1.641-0.835,1.641-1.768
				C1606.008,955.496,1605.27,954.717,1604.343,954.663z M1632.8,948.91c-0.791-1.16-2.03-1.974-3.439-2.596
				c-1.372-0.598-2.991-1.004-4.745-1.315h-0.07c-1.855-0.314-3.401-0.82-4.297-1.381c-0.446-0.279-0.759-0.559-0.932-0.814
				c-0.17-0.247-0.239-0.5-0.239-0.872c0-0.659,0.377-1.347,1.311-1.972c0.927-0.627,2.303-1.066,3.848-1.066
				c2.098,0,3.781,0.939,5.538,2.002c0.827,0.5,1.927,0.282,2.44-0.468c0.552-0.721,0.311-1.724-0.478-2.221
				c-1.754-1.033-4.201-2.507-7.5-2.507c-2.237,0-4.331,0.596-5.948,1.658c-1.584,1.07-2.755,2.693-2.755,4.574
				c0,0.936,0.277,1.814,0.795,2.562c0.753,1.096,1.89,1.882,3.19,2.441c1.313,0.564,2.828,0.94,4.441,1.223h0.071
				c2.024,0.343,3.712,0.873,4.711,1.468c0.514,0.317,0.825,0.628,1.031,0.943c0.208,0.313,0.308,0.592,0.308,0.999
				c0,0.782-0.445,1.565-1.481,2.256c-1.03,0.686-2.576,1.158-4.294,1.158c-2.444,0.03-5.058-1.286-6.571-2.411
				c-0.758-0.568-1.889-0.471-2.511,0.216c-0.584,0.688-0.481,1.723,0.275,2.285c1.963,1.412,5.088,3.103,8.807,3.131
				c2.439,0,4.676-0.655,6.36-1.781c1.72-1.129,2.956-2.849,2.956-4.854C1633.625,950.596,1633.319,949.661,1632.8,948.91z
				 M1575.79,936.364c-5.562,0-10.089,4.918-10.089,10.961c0,5.994,4.526,10.876,10.089,10.876c3.419,0,6.561-1.864,8.423-4.988
				c0.443-0.809,0.22-1.811-0.567-2.411c-0.257-0.163-0.556-0.25-0.863-0.25c-0.594,0-1.121,0.318-1.41,0.84
				c-1.162,2.055-3.302,3.326-5.584,3.326c-3.375,0-6.172-2.684-6.674-6.318h15.012c0.935,0,1.669-0.728,1.669-1.659v-0.222
				C1585.371,940.729,1581.069,936.364,1575.79,936.364z M1569.361,944.959c0.912-3.079,3.438-5.113,6.429-5.113
				c2.938,0,5.469,2.079,6.323,5.113H1569.361z"/>
		</g>
		<g>
			<path fill="#FFFFFF" d="M1330.073,948.42c0,0.654,0.006,1.242,0.016,1.773c0.013,0.525,0.072,1.047,0.175,1.559h-1.035
				l-0.381-1.359h-0.078c-0.254,0.446-0.623,0.817-1.11,1.11c-0.485,0.294-1.051,0.439-1.703,0.439c-1.273,0-2.222-0.398-2.84-1.206
				c-0.619-0.802-0.927-2.057-0.927-3.769c0-1.63,0.386-2.871,1.16-3.717c0.769-0.85,1.832-1.272,3.181-1.272
				c0.474,0,0.847,0.024,1.121,0.073c0.273,0.051,0.569,0.134,0.888,0.25v-3.978h1.533V948.42z M1326.209,950.605
				c0.649,0,1.165-0.172,1.548-0.509c0.382-0.337,0.642-0.851,0.784-1.539v-4.742c-0.23-0.178-0.489-0.307-0.784-0.383
				c-0.294-0.078-0.683-0.116-1.166-0.116c-0.882,0-1.568,0.292-2.069,0.873c-0.496,0.578-0.745,1.507-0.745,2.779
				c0,0.526,0.045,1.009,0.128,1.453c0.08,0.451,0.216,0.832,0.41,1.149c0.193,0.321,0.442,0.572,0.756,0.757
				C1325.384,950.512,1325.763,950.605,1326.209,950.605z"/>
			<path fill="#FFFFFF" d="M1340,950.948c-0.387,0.306-0.862,0.547-1.442,0.728c-0.584,0.177-1.198,0.266-1.848,0.266
				c-0.725,0-1.358-0.117-1.894-0.354c-0.535-0.235-0.977-0.571-1.32-1.013c-0.344-0.441-0.601-0.966-0.763-1.579
				c-0.17-0.61-0.253-1.297-0.253-2.063c0-1.632,0.365-2.877,1.093-3.732c0.724-0.852,1.766-1.282,3.116-1.282
				c0.434,0,0.865,0.049,1.301,0.147c0.435,0.093,0.823,0.277,1.167,0.546c0.347,0.266,0.625,0.646,0.843,1.137
				c0.217,0.492,0.326,1.139,0.326,1.941c0,0.42-0.039,0.888-0.117,1.395h-6.138c0,0.562,0.056,1.061,0.172,1.494
				c0.112,0.435,0.292,0.8,0.535,1.098c0.243,0.3,0.556,0.532,0.946,0.69c0.391,0.16,0.865,0.24,1.426,0.24
				c0.433,0,0.867-0.08,1.302-0.232c0.432-0.151,0.758-0.332,0.973-0.534L1340,950.948z M1336.71,943.259
				c-0.754,0-1.357,0.195-1.809,0.592c-0.451,0.396-0.723,1.071-0.813,2.029h4.746c0-0.972-0.187-1.651-0.558-2.041
				C1337.906,943.452,1337.384,943.259,1336.71,943.259z"/>
			<path fill="#FFFFFF" d="M1346.942,949.111c0-0.384-0.116-0.684-0.343-0.899c-0.231-0.216-0.515-0.398-0.852-0.546
				c-0.339-0.146-0.708-0.287-1.108-0.421c-0.404-0.131-0.774-0.306-1.113-0.515c-0.335-0.212-0.619-0.482-0.85-0.813
				c-0.228-0.333-0.344-0.78-0.344-1.341c0-0.917,0.26-1.586,0.784-2.017c0.523-0.427,1.249-0.642,2.182-0.642
				c0.688,0,1.266,0.061,1.729,0.185c0.465,0.12,0.871,0.263,1.216,0.43l-0.365,1.26c-0.294-0.139-0.649-0.263-1.061-0.37
				c-0.417-0.109-0.858-0.164-1.33-0.164c-0.561,0-0.972,0.094-1.233,0.287c-0.263,0.192-0.392,0.523-0.392,0.995
				c0,0.329,0.115,0.589,0.346,0.774c0.228,0.186,0.511,0.352,0.847,0.499c0.338,0.146,0.708,0.289,1.112,0.43
				c0.401,0.139,0.771,0.324,1.107,0.554c0.34,0.23,0.623,0.52,0.853,0.869c0.231,0.353,0.343,0.812,0.343,1.385
				c0,0.411-0.067,0.793-0.2,1.15c-0.135,0.357-0.34,0.665-0.621,0.919c-0.282,0.254-0.628,0.457-1.042,0.601
				c-0.416,0.146-0.905,0.221-1.461,0.221c-0.732,0-1.349-0.071-1.857-0.21c-0.511-0.141-0.937-0.305-1.281-0.498l0.457-1.3
				c0.295,0.166,0.676,0.319,1.149,0.459c0.47,0.142,0.948,0.212,1.435,0.212c0.547,0,1-0.108,1.357-0.327
				C1346.762,950.06,1346.942,949.672,1346.942,949.111z"/>
			<path fill="#FFFFFF" d="M1350.785,939.242c0-0.292,0.099-0.545,0.297-0.758c0.199-0.211,0.451-0.314,0.756-0.314
				c0.307,0,0.567,0.103,0.783,0.314c0.219,0.213,0.324,0.466,0.324,0.758c0,0.292-0.105,0.536-0.324,0.725
				c-0.216,0.193-0.476,0.289-0.783,0.289c-0.305,0-0.557-0.097-0.756-0.289C1350.884,939.778,1350.785,939.534,1350.785,939.242z
				 M1351.111,942.148h1.531v9.562h-1.531V942.148z"/>
			<path fill="#FFFFFF" d="M1363.237,952.151c0,1.239-0.328,2.151-0.985,2.739c-0.654,0.585-1.628,0.877-2.916,0.877
				c-0.763,0-1.38-0.048-1.847-0.142c-0.463-0.096-0.862-0.222-1.195-0.374l0.402-1.302c0.294,0.117,0.619,0.224,0.975,0.326
				c0.358,0.102,0.824,0.153,1.397,0.153c0.535,0,0.972-0.048,1.31-0.144c0.337-0.094,0.608-0.254,0.812-0.479
				c0.205-0.222,0.344-0.508,0.421-0.861c0.076-0.351,0.115-0.769,0.115-1.253v-0.918h-0.075c-0.256,0.371-0.583,0.653-0.975,0.851
				c-0.397,0.198-0.911,0.298-1.551,0.298c-1.287,0-2.235-0.403-2.84-1.206c-0.605-0.803-0.908-2.054-0.908-3.751
				c0-1.63,0.388-2.871,1.166-3.717c0.78-0.85,1.927-1.272,3.444-1.272c0.728,0,1.35,0.057,1.867,0.17
				c0.514,0.115,0.975,0.251,1.384,0.4V952.151z M1359.392,950.584c0.65,0,1.161-0.165,1.532-0.489
				c0.369-0.326,0.632-0.832,0.783-1.519v-4.898c-0.511-0.242-1.16-0.364-1.952-0.364c-0.865,0-1.549,0.296-2.046,0.879
				c-0.498,0.586-0.746,1.507-0.746,2.756c0,0.535,0.047,1.026,0.135,1.47c0.089,0.451,0.229,0.832,0.422,1.149
				c0.189,0.321,0.438,0.569,0.746,0.749C1358.572,950.496,1358.946,950.584,1359.392,950.584z"/>
			<path fill="#FFFFFF" d="M1372.324,951.71v-5.448c0-0.996-0.144-1.747-0.43-2.247c-0.287-0.505-0.815-0.757-1.578-0.757
				c-0.678,0-1.236,0.182-1.673,0.546c-0.44,0.361-0.75,0.818-0.929,1.366v6.539h-1.529v-9.562h1.069l0.286,1.166h0.077
				c0.307-0.408,0.719-0.745,1.234-1.005c0.517-0.258,1.133-0.393,1.847-0.393c0.525,0,0.983,0.061,1.375,0.185
				c0.398,0.12,0.725,0.334,0.989,0.64c0.259,0.304,0.458,0.716,0.59,1.233c0.137,0.517,0.201,1.171,0.201,1.961v5.774H1372.324z"/>
			<path fill="#FFFFFF" d="M1383.628,950.948c-0.383,0.306-0.862,0.547-1.444,0.728c-0.579,0.177-1.195,0.266-1.846,0.266
				c-0.725,0-1.357-0.117-1.892-0.354c-0.535-0.235-0.975-0.571-1.32-1.013c-0.346-0.441-0.601-0.966-0.764-1.579
				c-0.168-0.61-0.249-1.297-0.249-2.063c0-1.632,0.364-2.877,1.09-3.732c0.728-0.852,1.766-1.282,3.119-1.282
				c0.435,0,0.867,0.049,1.301,0.147c0.432,0.093,0.821,0.277,1.167,0.546c0.341,0.266,0.624,0.646,0.84,1.137
				c0.216,0.492,0.325,1.139,0.325,1.941c0,0.42-0.038,0.888-0.113,1.395h-6.141c0,0.562,0.057,1.061,0.173,1.494
				c0.113,0.435,0.291,0.8,0.535,1.098c0.242,0.3,0.555,0.532,0.945,0.69c0.389,0.16,0.865,0.24,1.425,0.24
				c0.433,0,0.868-0.08,1.302-0.232c0.433-0.151,0.758-0.332,0.975-0.534L1383.628,950.948z M1380.337,943.259
				c-0.752,0-1.354,0.195-1.807,0.592c-0.451,0.396-0.725,1.071-0.813,2.029h4.744c0-0.972-0.186-1.651-0.555-2.041
				C1381.534,943.452,1381.012,943.259,1380.337,943.259z"/>
			<path fill="#FFFFFF" d="M1393.707,948.42c0,0.654,0.006,1.242,0.021,1.773c0.014,0.525,0.07,1.047,0.172,1.559h-1.035
				l-0.382-1.359h-0.077c-0.254,0.446-0.625,0.817-1.109,1.11c-0.484,0.294-1.054,0.439-1.703,0.439
				c-1.272,0-2.221-0.398-2.84-1.206c-0.618-0.802-0.928-2.057-0.928-3.769c0-1.63,0.384-2.871,1.158-3.717
				c0.769-0.85,1.832-1.272,3.185-1.272c0.471,0,0.845,0.024,1.115,0.073c0.278,0.051,0.573,0.134,0.893,0.25v-3.978h1.528V948.42z
				 M1389.846,950.605c0.649,0,1.165-0.172,1.548-0.509c0.381-0.337,0.642-0.851,0.784-1.539v-4.742
				c-0.227-0.178-0.492-0.307-0.784-0.383c-0.292-0.078-0.682-0.116-1.168-0.116c-0.879,0-1.566,0.292-2.064,0.873
				c-0.496,0.578-0.745,1.507-0.745,2.779c0,0.526,0.039,1.009,0.125,1.453c0.08,0.451,0.22,0.832,0.408,1.149
				c0.194,0.321,0.444,0.572,0.759,0.757C1389.02,950.512,1389.398,950.605,1389.846,950.605z"/>
			<path fill="#FFFFFF" d="M1401.761,938.323h1.53v4.763h0.078c0.293-0.37,0.665-0.657,1.117-0.862
				c0.452-0.202,0.948-0.307,1.481-0.307c1.24,0,2.165,0.397,2.787,1.189c0.616,0.789,0.925,2.014,0.925,3.673
				c0,1.67-0.408,2.94-1.223,3.806c-0.814,0.867-1.962,1.299-3.443,1.299c-0.714,0-1.361-0.076-1.94-0.228
				c-0.579-0.152-1.018-0.318-1.311-0.498V938.323z M1405.702,943.259c-0.639,0-1.157,0.177-1.55,0.534
				c-0.395,0.356-0.682,0.862-0.861,1.511v4.818c0.241,0.143,0.537,0.25,0.88,0.32c0.344,0.07,0.703,0.104,1.072,0.104
				c0.865,0,1.559-0.307,2.072-0.92c0.52-0.61,0.775-1.567,0.775-2.867c0-0.496-0.043-0.963-0.133-1.398
				c-0.088-0.433-0.228-0.801-0.421-1.108c-0.189-0.306-0.436-0.551-0.735-0.725C1406.5,943.349,1406.134,943.259,1405.702,943.259z
				"/>
			<path fill="#FFFFFF" d="M1414.684,948.346l0.535,1.836h0.097l0.421-1.853l1.864-6.18h1.528l-2.83,8.588
				c-0.218,0.625-0.429,1.232-0.642,1.818c-0.212,0.586-0.443,1.109-0.697,1.57c-0.256,0.46-0.543,0.824-0.861,1.099
				c-0.318,0.274-0.687,0.411-1.108,0.411c-0.459,0-0.835-0.066-1.128-0.19l0.268-1.32c0.166,0.064,0.323,0.094,0.478,0.094
				c0.357,0,0.701-0.187,1.032-0.564c0.33-0.375,0.607-1.023,0.821-1.944l-3.843-9.562h1.76L1414.684,948.346z"/>
		</g>
	</g>
</g>
<g id="Layer_3">
</g>
</svg>
